<?xml version="1.0" standalone="no"?>
<!DOCTYPE svg PUBLIC "-//W3C//DTD SVG 20010904//EN"
 "http://www.w3.org/TR/2001/REC-SVG-20010904/DTD/svg10.dtd">
<svg version="1.0" xmlns="http://www.w3.org/2000/svg"
 width="500.000000pt" height="500.000000pt" viewBox="0 0 500.000000 500.000000"
 preserveAspectRatio="xMidYMid meet">

<g transform="translate(0.000000,500.000000) scale(0.100000,-0.100000)"
fill="#000000" stroke="none">
<path d="M2255 4800 c-22 -4 -69 -13 -105 -19 -36 -6 -87 -17 -115 -25 -113
-32 -172 -48 -205 -56 -40 -9 -118 -38 -181 -68 -77 -36 -159 -72 -164 -72 -2
0 -30 -17 -62 -38 -32 -21 -65 -42 -73 -45 -43 -20 -234 -153 -286 -199 -187
-166 -254 -234 -387 -389 -58 -67 -161 -217 -203 -294 -20 -39 -48 -87 -61
-107 -12 -21 -23 -42 -23 -47 0 -4 -12 -35 -26 -67 -14 -33 -32 -75 -41 -94
-8 -19 -21 -48 -28 -65 -7 -16 -16 -41 -18 -55 -3 -14 -20 -79 -37 -145 -56
-218 -63 -278 -68 -575 -3 -224 0 -293 13 -370 30 -173 50 -262 90 -400 16
-55 117 -295 146 -347 90 -163 212 -335 295 -420 l62 -63 1739 0 c1628 0 1740
1 1763 17 117 81 301 352 400 588 5 11 20 46 35 79 27 60 34 83 86 291 16 66
36 145 44 175 53 206 54 621 3 830 -6 25 -14 68 -19 95 -4 28 -22 100 -39 160
-17 61 -35 124 -40 140 -11 42 -100 252 -121 285 -5 8 -12 22 -16 30 -4 8 -16
31 -28 50 -12 19 -37 62 -55 95 -18 33 -42 71 -54 85 -12 14 -34 43 -49 65
-14 22 -42 58 -62 80 -138 154 -218 238 -273 285 -35 30 -78 68 -95 83 -56 49
-220 162 -288 199 -97 53 -113 62 -119 69 -6 8 -53 29 -165 74 -49 20 -94 40
-100 44 -5 4 -37 16 -70 26 -33 10 -71 21 -85 26 -36 12 -237 57 -355 80 -71
14 -502 21 -560 9z m534 -171 c301 -49 654 -181 875 -326 210 -138 459 -353
554 -477 25 -34 49 -63 52 -66 12 -9 166 -244 183 -279 9 -19 17 -45 17 -58 0
-22 -4 -23 -59 -23 -54 0 -62 -3 -85 -31 -33 -39 -36 -51 -39 -184 l-2 -110
-133 -3 c-105 -2 -134 0 -138 11 -3 8 -6 106 -7 219 l-2 206 -31 39 c-18 21
-44 41 -60 44 -38 9 -383 11 -422 3 -17 -4 -46 -20 -64 -36 l-33 -29 -3 -272
c-3 -238 -5 -274 -19 -284 -12 -9 -58 -13 -145 -13 -111 0 -128 2 -137 18 -5
9 -10 94 -13 188 -5 256 -8 258 -308 259 -107 0 -208 -4 -223 -8 -16 -4 -42
-21 -58 -38 -23 -24 -29 -39 -30 -77 0 -26 0 -172 1 -325 1 -200 -2 -283 -11
-293 -10 -12 -167 -14 -1043 -14 -580 0 -1037 4 -1045 9 -27 17 1 193 57 366
11 33 28 87 37 120 9 33 37 102 61 152 24 51 44 95 44 97 0 8 83 151 90 156 4
3 17 23 28 45 56 108 379 465 480 529 20 13 48 33 62 45 14 11 30 25 36 30 6
5 30 21 55 36 24 16 62 42 85 59 56 43 364 196 393 196 6 0 19 4 29 9 60 30
273 87 412 109 79 13 481 14 559 1z m1035 -1205 c14 -6 16 -121 16 -1203 0
-918 -3 -1200 -12 -1209 -8 -8 -51 -12 -130 -12 -106 0 -118 2 -128 19 -7 13
-10 404 -10 1196 0 792 3 1183 10 1196 10 17 22 19 125 19 62 0 120 -3 129 -6z
m-920 -180 c10 -27 7 -244 -4 -265 -10 -17 -22 -19 -120 -19 -60 0 -120 4
-134 10 -26 9 -26 10 -26 134 0 68 3 131 6 140 5 14 27 16 139 16 112 0 134
-2 139 -16z m1656 -44 c10 -5 22 -24 25 -42 4 -18 11 -39 15 -48 4 -8 15 -42
25 -75 10 -33 23 -78 30 -100 40 -128 57 -257 62 -494 5 -234 -9 -367 -64
-576 -16 -62 -39 -136 -53 -170 -5 -11 -19 -49 -31 -85 -25 -73 -38 -108 -63
-163 -13 -29 -20 -36 -32 -29 -13 7 -15 113 -14 891 0 486 3 888 6 892 7 12
71 11 94 -1z m-286 -296 c13 -5 16 -25 16 -114 0 -61 -4 -112 -10 -115 -5 -3
-59 -8 -120 -11 -152 -6 -150 -7 -150 128 0 93 2 107 18 111 26 7 228 8 246 1z
m-1374 -113 c13 -26 14 -1729 0 -1765 l-10 -26 -130 0 c-126 0 -130 1 -135 23
-3 12 -4 416 -3 897 l3 875 50 6 c28 3 87 7 132 7 72 2 84 0 93 -17z m471 9
c19 -10 19 -31 19 -886 0 -584 -3 -882 -10 -895 -10 -17 -22 -19 -145 -19
-123 0 -135 2 -145 19 -7 13 -10 309 -10 889 0 919 -2 883 45 895 39 9 227 7
246 -3z m-937 -310 l26 -10 0 -209 c0 -177 -2 -212 -16 -225 -14 -14 -122 -16
-1039 -16 -892 0 -1025 2 -1038 15 -20 19 -32 136 -32 305 l0 135 1035 5 c569
3 1036 6 1037 8 1 1 13 -2 27 -8z m1844 -2 c15 -15 18 -1362 3 -1400 -5 -13
-24 -38 -42 -56 -32 -31 -36 -32 -115 -32 -45 0 -89 3 -98 6 -14 6 -16 80 -16
744 0 581 3 739 13 743 27 11 243 7 255 -5z m-1828 -647 c6 -12 10 -96 10
-205 0 -182 0 -186 -22 -199 -19 -11 -186 -14 -944 -16 l-921 -3 -22 30 c-11
17 -21 33 -21 37 0 4 -13 34 -28 68 -16 34 -37 85 -46 112 -10 28 -22 59 -26
70 -20 50 -29 109 -17 117 7 4 465 8 1019 8 986 0 1008 0 1018 -19z m-13 -589
c9 -6 14 -44 15 -120 3 -91 0 -115 -12 -122 -9 -6 -323 -10 -801 -10 l-786 0
-65 73 c-98 109 -130 157 -117 173 9 12 163 14 883 14 479 0 877 -4 883 -8z"/>
<path d="M2436 4235 c-61 -17 -114 -59 -146 -116 -22 -38 -25 -56 -25 -134 0
-81 3 -94 27 -131 72 -111 207 -148 323 -89 92 46 135 117 135 226 0 133 -64
215 -195 249 -49 12 -57 12 -119 -5z"/>
<path d="M1656 3029 c-52 -41 -20 -129 48 -129 62 0 97 49 75 103 -20 48 -79
61 -123 26z"/>
<path d="M1126 610 c-19 -20 -17 -51 7 -80 18 -22 87 -75 127 -97 19 -10 62
-36 95 -58 93 -60 314 -175 337 -175 8 0 18 -4 24 -9 5 -5 36 -16 69 -26 33
-9 74 -21 90 -27 70 -23 143 -41 190 -48 28 -4 79 -14 115 -21 105 -21 578
-18 705 4 122 22 199 42 285 73 36 13 71 24 77 24 7 0 27 6 45 14 18 8 51 22
73 31 22 9 48 21 59 26 10 6 65 35 121 63 172 89 335 205 365 260 12 23 11 28
-5 46 -18 20 -28 20 -1389 19 -1331 0 -1372 -1 -1390 -19z m2282 -155 c25 -9
10 -26 -53 -55 -35 -16 -66 -30 -69 -30 -3 0 -33 -13 -68 -29 -105 -47 -122
-52 -318 -86 -162 -29 -293 -37 -471 -32 -97 4 -196 11 -220 16 -24 5 -89 18
-144 27 -102 17 -185 41 -259 73 -53 24 -186 78 -208 85 -16 5 -24 26 -14 37
6 6 1808 0 1824 -6z"/>
</g>
</svg>
